# xmcd
# Track frame offsets:
# 182
# 12185
# 24815
# 35625
# 47022
# 59435
# 70980
# 81975
# 92852
# 104050
# 116432
# 125995
# 138830
# 149380
# 158610
# 169957
# 180930
# 190267
# 199477
# 210427
# 220312
# 229725
# 238672
# 247917
# 258022
# 267897
#
# Disc length: 3711 seconds
# Revision: 0
# Processed by: cddbd v1.4PL0 Copyright (c) Steve Scherf et al.
# Submitted via: VisiTrax 2.9.5.181 - For more info visit www.synapsa.com
#
DISCID=750e7d1a
DTITLE=Jim Reeves - The Wonderful World of Jim Reeves: 26 Great Country Hit
DTITLE=s - Volume 1: The Early Years
DYEAR=1993
DGENRE=Country Compilation
TTITLE0=Mexican Joe
TTITLE1=Bimbo
TTITLE2=Then I'll Stop Loving You
TTITLE3=Penny Candy
TTITLE4=Drinking Tequila
TTITLE5=Yonder Comes A Sucker
TTITLE6=I'm Hurtin' Inside
TTITLE7=My Lips Are Sealed
TTITLE8=According To My Heart
TTITLE9=Am I Losing You
TTITLE10=Waitin' For A Train
TTITLE11=Four Walls
TTITLE12=Two Shadows On Your Window
TTITLE13=Young Hearts
TTITLE14=Anna Marie
TTITLE15=The Gods Were Angry With Me
TTITLE16=I Know (And You Know)
TTITLE17=Overnight
TTITLE18=I Love You More
TTITLE19=Blue Boy
TTITLE20=Billy Bayou
TTITLE21=Home
TTITLE22=I'd Like To Be
TTITLE23=Partners
TTITLE24=I'm Beginning To Forget You
TTITLE25=He'll Have To Go
EXTD=SPA REMEBER RTMB75630. \nMade in Portugal. Bought in England.
EXTT0=
EXTT1=
EXTT2=
EXTT3=
EXTT4=
EXTT5=
EXTT6=
EXTT7=
EXTT8=
EXTT9=
EXTT10=
EXTT11=
EXTT12=
EXTT13=
EXTT14=
EXTT15=
EXTT16=
EXTT17=
EXTT18=
EXTT19=
EXTT20=
EXTT21=
EXTT22=
EXTT23=
EXTT24=
EXTT25=
PLAYORDER=
